<svg version="1.1" viewBox="0.0 0.0 600.0 371.0" fill="none" stroke="none" stroke-linecap="square" stroke-miterlimit="10" width="600" height="371" xmlns:xlink="http://www.w3.org/1999/xlink" xmlns="http://www.w3.org/2000/svg"><path fill="#ffffff" d="M0 0L600.0 0L600.0 371.0L0 371.0L0 0Z" fill-rule="nonzero"/><path fill="#ffffff" d="M0 0L600.0 0L600.0 371.0L0 371.0L0 0Z" fill-rule="nonzero"/><path stroke="#cccccc" stroke-width="1.0" stroke-linecap="butt" d="M117.5 113.5L117.5 298.5" fill-rule="nonzero"/><path stroke="#cccccc" stroke-width="1.0" stroke-linecap="butt" d="M213.5 113.5L213.5 298.5" fill-rule="nonzero"/><path stroke="#cccccc" stroke-width="1.0" stroke-linecap="butt" d="M310.5 113.5L310.5 298.5" fill-rule="nonzero"/><path stroke="#cccccc" stroke-width="1.0" stroke-linecap="butt" d="M407.5 113.5L407.5 298.5" fill-rule="nonzero"/><path stroke="#cccccc" stroke-width="1.0" stroke-linecap="butt" d="M504.5 113.5L504.5 298.5" fill-rule="nonzero"/><path stroke="#333333" stroke-width="1.0" stroke-linecap="butt" d="M78.5 298.5L581.5 298.5" fill-rule="nonzero"/><path stroke="#cccccc" stroke-width="1.0" stroke-linecap="butt" d="M78.5 252.5L581.5 252.5" fill-rule="nonzero"/><path stroke="#cccccc" stroke-width="1.0" stroke-linecap="butt" d="M78.5 206.5L581.5 206.5" fill-rule="nonzero"/><path stroke="#cccccc" stroke-width="1.0" stroke-linecap="butt" d="M78.5 159.5L581.5 159.5" fill-rule="nonzero"/><path stroke="#cccccc" stroke-width="1.0" stroke-linecap="butt" d="M78.5 113.5L581.5 113.5" fill-rule="nonzero"/><clipPath id="id_0"><path d="M78.55 113.78333L581.45 113.78333L581.45 298.45L78.55 298.45L78.55 113.78333Z" clip-rule="nonzero"/></clipPath><path stroke="#b7b7b7" stroke-width="2.0" stroke-linecap="butt" stroke-dasharray="2.0,3.0" clip-path="url(#id_0)" d="M581.45 134.09666L562.10767 139.63667L542.7654 154.41L523.4231 169.18333L504.08078 204.27L484.73846 222.73666L465.39615 255.97667L446.05383 260.59332L426.71155 265.21L407.36923 267.05667L388.02692 268.90332L368.6846 267.05667L349.34232 265.21L330.0 263.36334L310.65768 261.51666L291.3154 259.67L271.97308 261.51666L252.63077 263.36334L233.28847 265.21L213.94615 267.05667L194.60385 265.21L175.26154 263.36334L155.91924 261.51666L136.57692 261.51666L117.23462 267.05667L97.89231 272.59668L78.55 265.21" fill-rule="nonzero"/><path fill="#000000" clip-path="url(#id_0)" d="M428.71155 265.21C428.71155 266.31458 427.8161 267.21 426.71155 267.21C425.60696 267.21 424.71155 266.31458 424.71155 265.21C424.71155 264.10544 425.60696 263.21 426.71155 263.21C427.8161 263.21 428.71155 264.10544 428.71155 265.21Z" fill-rule="nonzero"/><path stroke="#000000" stroke-width="2.0" stroke-linecap="butt" clip-path="url(#id_0)" d="M581.45 134.09666L562.10767 139.63667M523.4231 169.18333L504.08078 204.27L484.73846 222.73666L465.39615 255.97667M175.26154 263.36334L155.91924 261.51666L136.57692 261.51666M97.89231 272.59668L78.55 265.21" fill-rule="nonzero"/><path fill="#424242" d="M329.70312 347.21564L326.125 347.21564L325.32812 349.45L324.17188 349.45L327.42188 340.91876L328.40625 340.91876L331.67188 349.45L330.51562 349.45L329.70312 347.21564ZM326.46875 346.29376L329.375 346.29376L327.92188 342.3094L326.46875 346.29376ZM329.23438 339.2Q329.23438 339.71564 328.85938 340.0594Q328.5 340.3875 327.96875 340.3875Q327.4375 340.3875 327.0625 340.04376Q326.70312 339.7 326.70312 339.2Q326.70312 338.7 327.0625 338.34064Q327.4375 337.98126 327.96875 337.98126Q328.51562 337.98126 328.875 338.34064Q329.23438 338.7 329.23438 339.2ZM327.29688 339.2Q327.29688 339.48126 327.48438 339.6844Q327.6875 339.8719 327.96875 339.8719Q328.25 339.8719 328.45312 339.6844Q328.65625 339.48126 328.65625 339.2Q328.65625 338.91876 328.45312 338.71564Q328.25 338.5125 327.96875 338.5125Q327.67188 338.5125 327.48438 338.71564Q327.29688 338.91876 327.29688 339.2ZM335.89062 344.075Q335.64062 344.04376 335.35938 344.04376Q334.28125 344.04376 333.90625 344.95L333.90625 349.45L332.82812 349.45L332.82812 343.10626L333.875 343.10626L333.89062 343.84064Q334.42188 342.9969 335.40625 342.9969Q335.71875 342.9969 335.89062 343.075L335.89062 344.075Z" fill-rule="nonzero"/><path fill="#424242" d="M22.018763 242.42917L28.971888 239.6323L22.018763 236.85104L22.018763 235.3823L30.550013 235.3823L30.550013 236.5073L27.221888 236.5073L23.643763 236.39792L30.550013 239.21042L30.550013 240.0698L23.659388 242.86667L27.221888 242.7573L30.550013 242.7573L30.550013 243.8823L22.018763 243.8823L22.018763 242.42917ZM30.675013 231.41354Q30.675013 232.71042 29.831263 233.52292Q28.971888 234.3198 27.550013 234.3198L27.362513 234.3198Q26.409388 234.3198 25.675013 233.96042Q24.925013 233.60104 24.518763 232.96042Q24.096888 232.30417 24.096888 231.55417Q24.096888 230.3198 24.909388 229.6323Q25.721888 228.9448 27.237513 228.9448L27.690638 228.9448L27.690638 233.24167Q28.628138 233.21042 29.206263 232.6948Q29.784388 232.16354 29.784388 231.35104Q29.784388 230.78854 29.550013 230.39792Q29.315638 229.99167 28.925013 229.67917L29.440638 229.02292Q30.675013 229.8198 30.675013 231.41354ZM24.987513 231.55417Q24.987513 232.21042 25.471888 232.66354Q25.940638 233.10104 26.800013 233.1948L26.800013 230.02292L26.721888 230.02292Q25.893763 230.0698 25.440638 230.47604Q24.987513 230.86667 24.987513 231.55417ZM27.331263 228.30417Q25.862513 228.30417 24.987513 227.61667Q24.096888 226.92917 24.096888 225.80417Q24.096888 224.6948 24.846888 224.03854L21.550013 224.03854L21.550013 222.96042L30.550013 222.96042L30.550013 223.96042L29.862513 224.0073Q30.675013 224.66354 30.675013 225.8198Q30.675013 226.91354 29.768763 227.61667Q28.862513 228.30417 27.409388 228.30417L27.331263 228.30417ZM27.456263 227.22604Q28.534388 227.22604 29.143763 226.78854Q29.753138 226.33542 29.753138 225.55417Q29.753138 224.52292 28.815638 224.03854L25.909388 224.03854Q25.018763 224.52292 25.018763 225.53854Q25.018763 226.33542 25.628138 226.78854Q26.237513 227.22604 27.456263 227.22604ZM30.550013 219.86667L30.550013 220.9448L21.550013 220.9448L21.550013 219.86667L30.550013 219.86667ZM30.675013 215.41354Q30.675013 216.71042 29.831263 217.52292Q28.971888 218.3198 27.550013 218.3198L27.362513 218.3198Q26.409388 218.3198 25.675013 217.96042Q24.925013 217.60104 24.518763 216.96042Q24.096888 216.30417 24.096888 215.55417Q24.096888 214.3198 24.909388 213.6323Q25.721888 212.9448 27.237513 212.9448L27.690638 212.9448L27.690638 217.24167Q28.628138 217.21042 29.206263 216.6948Q29.784388 216.16354 29.784388 215.35104Q29.784388 214.78854 29.550013 214.39792Q29.315638 213.99167 28.925013 213.67917L29.440638 213.02292Q30.675013 213.8198 30.675013 215.41354ZM24.987513 215.55417Q24.987513 216.21042 25.471888 216.66354Q25.940638 217.10104 26.800013 217.1948L26.800013 214.02292L26.721888 214.02292Q25.893763 214.0698 25.440638 214.47604Q24.987513 214.86667 24.987513 215.55417ZM24.206263 211.02292L24.909388 210.99167Q24.096888 210.30417 24.096888 209.11667Q24.096888 207.78854 25.112513 207.30417Q24.659388 206.99167 24.378138 206.49167Q24.096888 205.97604 24.096888 205.28854Q24.096888 203.1948 26.300013 203.16354L30.550013 203.16354L30.550013 204.24167L26.362513 204.24167Q25.690638 204.24167 25.362513 204.55417Q25.018763 204.86667 25.018763 205.60104Q25.018763 206.21042 25.378138 206.61667Q25.737513 207.0073 26.346888 207.0698L30.550013 207.0698L30.550013 208.14792L26.393763 208.14792Q25.018763 208.14792 25.018763 209.5073Q25.018763 210.5698 25.925013 210.96042L30.550013 210.96042L30.550013 212.05417L24.206263 212.05417L24.206263 211.02292ZM24.206263 200.02292L24.909388 199.99167Q24.096888 199.30417 24.096888 198.11667Q24.096888 196.78854 25.112513 196.30417Q24.659388 195.99167 24.378138 195.49167Q24.096888 194.97604 24.096888 194.28854Q24.096888 192.1948 26.300013 192.16354L30.550013 192.16354L30.550013 193.24167L26.362513 193.24167Q25.690638 193.24167 25.362513 193.55417Q25.018763 193.86667 25.018763 194.60104Q25.018763 195.21042 25.378138 195.61667Q25.737513 196.0073 26.346888 196.0698L30.550013 196.0698L30.550013 197.14792L26.393763 197.14792Q25.018763 197.14792 25.018763 198.5073Q25.018763 199.5698 25.925013 199.96042L30.550013 199.96042L30.550013 201.05417L24.206263 201.05417L24.206263 200.02292ZM30.675013 187.41354Q30.675013 188.71042 29.831263 189.52292Q28.971888 190.3198 27.550013 190.3198L27.362513 190.3198Q26.409388 190.3198 25.675013 189.96042Q24.925013 189.60104 24.518763 188.96042Q24.096888 188.30417 24.096888 187.55417Q24.096888 186.3198 24.909388 185.6323Q25.721888 184.9448 27.237513 184.9448L27.690638 184.9448L27.690638 189.24167Q28.628138 189.21042 29.206263 188.6948Q29.784388 188.16354 29.784388 187.35104Q29.784388 186.78854 29.550013 186.39792Q29.315638 185.99167 28.925013 185.67917L29.440638 185.02292Q30.675013 185.8198 30.675013 187.41354ZM24.987513 187.55417Q24.987513 188.21042 25.471888 188.66354Q25.940638 189.10104 26.800013 189.1948L26.800013 186.02292L26.721888 186.02292Q25.893763 186.0698 25.440638 186.47604Q24.987513 186.86667 24.987513 187.55417ZM25.175013 180.97604Q25.143763 181.22604 25.143763 181.5073Q25.143763 182.58542 26.050013 182.96042L30.550013 182.96042L30.550013 184.03854L24.206263 184.03854L24.206263 182.99167L24.940638 182.97604Q24.096888 182.4448 24.096888 181.46042Q24.096888 181.14792 24.175013 180.97604L25.175013 180.97604Z" fill-rule="nonzero"/><path fill="#757575" d="M71.6125 299.3094Q71.6125 301.21564 70.95625 302.15314Q70.31563 303.075 68.925 303.075Q67.56563 303.075 66.90938 302.16876Q66.25313 301.2625 66.22188 299.45L66.22188 298.0125Q66.22188 296.1219 66.8625 295.21564Q67.51875 294.29376 68.90938 294.29376Q70.28438 294.29376 70.94063 295.1844Q71.59688 296.0594 71.6125 297.90314L71.6125 299.3094ZM70.51875 297.825Q70.51875 296.45 70.12813 295.825Q69.75313 295.1844 68.90938 295.1844Q68.08125 295.1844 67.69063 295.825Q67.31563 296.45 67.31563 297.7469L67.31563 299.48126Q67.31563 300.85626 67.70625 301.52814Q68.1125 302.1844 68.925 302.1844Q69.72188 302.1844 70.1125 301.5594Q70.50313 300.9344 70.51875 299.60626L70.51875 297.825Z" fill-rule="nonzero"/><path fill="#757575" d="M64.84688 256.78333L59.253124 256.78333L59.253124 256.00208L62.20625 252.72083Q62.8625 251.97083 63.1125 251.5177Q63.3625 251.04895 63.3625 250.54895Q63.3625 249.87708 62.95625 249.4552Q62.565624 249.0177 61.878124 249.0177Q61.08125 249.0177 60.628124 249.48645Q60.175 249.93958 60.175 250.7677L59.096874 250.7677Q59.096874 249.5802 59.846874 248.86145Q60.6125 248.12708 61.878124 248.12708Q63.08125 248.12708 63.76875 248.75208Q64.45625 249.37708 64.45625 250.42395Q64.45625 251.67395 62.846874 253.42395L60.565624 255.8927L64.84688 255.8927L64.84688 256.78333ZM66.75313 252.50208L67.19063 248.25208L71.56563 248.25208L71.56563 249.25208L68.1125 249.25208L67.84688 251.5802Q68.4875 251.2052 69.28438 251.2052Q70.44063 251.2052 71.12813 251.98645Q71.81563 252.75208 71.81563 254.06458Q71.81563 255.37708 71.09688 256.1427Q70.39375 256.90833 69.1125 256.90833Q67.9875 256.90833 67.26875 256.28333Q66.55 255.6427 66.45625 254.53333L67.47188 254.53333Q67.58125 255.2677 68.00313 255.6427Q68.425 256.0177 69.1125 256.0177Q69.8625 256.0177 70.3 255.50208Q70.7375 254.98645 70.7375 254.0802Q70.7375 253.22083 70.26875 252.7052Q69.8 252.18958 69.01875 252.18958Q68.31563 252.18958 67.90938 252.48645L67.62813 252.72083L66.75313 252.50208Z" fill-rule="nonzero"/><path fill="#757575" d="M59.753124 206.33542L60.190624 202.08542L64.56563 202.08542L64.56563 203.08542L61.1125 203.08542L60.846874 205.41354Q61.4875 205.03854 62.284374 205.03854Q63.440624 205.03854 64.12813 205.8198Q64.81563 206.58542 64.81563 207.89792Q64.81563 209.21042 64.09688 209.97604Q63.39375 210.74167 62.1125 210.74167Q60.9875 210.74167 60.26875 210.11667Q59.55 209.47604 59.45625 208.36667L60.471874 208.36667Q60.58125 209.10104 61.003124 209.47604Q61.425 209.85104 62.1125 209.85104Q62.8625 209.85104 63.3 209.33542Q63.7375 208.8198 63.7375 207.91354Q63.7375 207.05417 63.26875 206.53854Q62.8 206.02292 62.01875 206.02292Q61.315624 206.02292 60.909374 206.3198L60.628124 206.55417L59.753124 206.33542ZM71.6125 206.97604Q71.6125 208.8823 70.95625 209.8198Q70.31563 210.74167 68.925 210.74167Q67.56563 210.74167 66.90938 209.83542Q66.25313 208.92917 66.22188 207.11667L66.22188 205.67917Q66.22188 203.78854 66.8625 202.8823Q67.51875 201.96042 68.90938 201.96042Q70.28438 201.96042 70.94063 202.85104Q71.59688 203.72604 71.6125 205.5698L71.6125 206.97604ZM70.51875 205.49167Q70.51875 204.11667 70.12813 203.49167Q69.75313 202.85104 68.90938 202.85104Q68.08125 202.85104 67.69063 203.49167Q67.31563 204.11667 67.31563 205.41354L67.31563 207.14792Q67.31563 208.52292 67.70625 209.1948Q68.1125 209.85104 68.925 209.85104Q69.72188 209.85104 70.1125 209.22604Q70.50313 208.60104 70.51875 207.27292L70.51875 205.49167Z" fill-rule="nonzero"/><path fill="#757575" d="M64.76875 156.52812L61.2375 164.45L60.096874 164.45L63.6125 156.80937L59.003124 156.80937L59.003124 155.91875L64.76875 155.91875L64.76875 156.52812ZM66.75313 160.16875L67.19063 155.91875L71.56563 155.91875L71.56563 156.91875L68.1125 156.91875L67.84688 159.24687Q68.4875 158.87187 69.28438 158.87187Q70.44063 158.87187 71.12813 159.65312Q71.81563 160.41875 71.81563 161.73125Q71.81563 163.04375 71.09688 163.80937Q70.39375 164.575 69.1125 164.575Q67.9875 164.575 67.26875 163.95Q66.55 163.30937 66.45625 162.2L67.47188 162.2Q67.58125 162.93437 68.00313 163.30937Q68.425 163.68437 69.1125 163.68437Q69.8625 163.68437 70.3 163.16875Q70.7375 162.65312 70.7375 161.74687Q70.7375 160.8875 70.26875 160.37187Q69.8 159.85625 69.01875 159.85625Q68.31563 159.85625 67.90938 160.15312L67.62813 160.3875L66.75313 160.16875Z" fill-rule="nonzero"/><path fill="#757575" d="M55.815624 118.28333L54.7375 118.28333L54.7375 111.06458L52.55 111.86146L52.55 110.87708L55.659374 109.70521L55.815624 109.70521L55.815624 118.28333ZM64.6125 114.64271Q64.6125 116.54896 63.95625 117.48646Q63.315624 118.40833 61.925 118.40833Q60.565624 118.40833 59.909374 117.50208Q59.253124 116.59583 59.221874 114.78333L59.221874 113.34583Q59.221874 111.45521 59.8625 110.54896Q60.51875 109.62708 61.909374 109.62708Q63.284374 109.62708 63.940624 110.51771Q64.59688 111.39271 64.6125 113.23646L64.6125 114.64271ZM63.51875 113.15833Q63.51875 111.78333 63.128124 111.15833Q62.753124 110.51771 61.909374 110.51771Q61.08125 110.51771 60.690624 111.15833Q60.315624 111.78333 60.315624 113.08021L60.315624 114.81458Q60.315624 116.18958 60.70625 116.86146Q61.1125 117.51771 61.925 117.51771Q62.721874 117.51771 63.1125 116.89271Q63.503124 116.26771 63.51875 114.93958L63.51875 113.15833ZM71.6125 114.64271Q71.6125 116.54896 70.95625 117.48646Q70.31563 118.40833 68.925 118.40833Q67.56563 118.40833 66.90938 117.50208Q66.25313 116.59583 66.22188 114.78333L66.22188 113.34583Q66.22188 111.45521 66.8625 110.54896Q67.51875 109.62708 68.90938 109.62708Q70.28438 109.62708 70.94063 110.51771Q71.59688 111.39271 71.6125 113.23646L71.6125 114.64271ZM70.51875 113.15833Q70.51875 111.78333 70.12813 111.15833Q69.75313 110.51771 68.90938 110.51771Q68.08125 110.51771 67.69063 111.15833Q67.31563 111.78333 67.31563 113.08021L67.31563 114.81458Q67.31563 116.18958 67.70625 116.86146Q68.1125 117.51771 68.925 117.51771Q69.72188 117.51771 70.1125 116.89271Q70.50313 116.26771 70.51875 114.93958L70.51875 113.15833Z" fill-rule="nonzero"/><path fill="#757575" d="M107.500244 316.45L106.42212 316.45L106.42212 309.23126L104.23462 310.02814L104.23462 309.04376L107.343994 307.8719L107.500244 307.8719L107.500244 316.45ZM115.093994 312.7Q114.76587 313.10626 114.281494 313.35626Q113.812744 313.59064 113.250244 313.59064Q112.51587 313.59064 111.968994 313.23126Q111.42212 312.8719 111.125244 312.21564Q110.82837 311.54376 110.82837 310.7469Q110.82837 309.90314 111.14087 309.21564Q111.468994 308.52814 112.062744 308.16876Q112.67212 307.79376 113.468994 307.79376Q114.73462 307.79376 115.45337 308.7469Q116.187744 309.7 116.187744 311.325L116.187744 311.6375Q116.187744 314.1375 115.20337 315.27814Q114.218994 316.41876 112.23462 316.45L112.01587 316.45L112.01587 315.54376L112.250244 315.54376Q113.593994 315.5125 114.312744 314.84064Q115.031494 314.16876 115.093994 312.7ZM113.42212 312.7Q113.968994 312.7 114.42212 312.3719Q114.89087 312.02814 115.10962 311.54376L115.10962 311.10626Q115.10962 310.04376 114.64087 309.3719Q114.17212 308.7 113.468994 308.7Q112.750244 308.7 112.312744 309.2469Q111.89087 309.79376 111.89087 310.7Q111.89087 311.575 112.29712 312.1375Q112.718994 312.7 113.42212 312.7ZM122.093994 312.7Q121.76587 313.10626 121.281494 313.35626Q120.812744 313.59064 120.250244 313.59064Q119.51587 313.59064 118.968994 313.23126Q118.42212 312.8719 118.125244 312.21564Q117.82837 311.54376 117.82837 310.7469Q117.82837 309.90314 118.14087 309.21564Q118.468994 308.52814 119.062744 308.16876Q119.67212 307.79376 120.468994 307.79376Q121.73462 307.79376 122.45337 308.7469Q123.187744 309.7 123.187744 311.325L123.187744 311.6375Q123.187744 314.1375 122.20337 315.27814Q121.218994 316.41876 119.23462 316.45L119.01587 316.45L119.01587 315.54376L119.250244 315.54376Q120.593994 315.5125 121.312744 314.84064Q122.031494 314.16876 122.093994 312.7ZM120.42212 312.7Q120.968994 312.7 121.42212 312.3719Q121.89087 312.02814 122.10962 311.54376L122.10962 311.10626Q122.10962 310.04376 121.64087 309.3719Q121.17212 308.7 120.468994 308.7Q119.750244 308.7 119.312744 309.2469Q118.89087 309.79376 118.89087 310.7Q118.89087 311.575 119.29712 312.1375Q119.718994 312.7 120.42212 312.7ZM125.437744 312.16876L125.875244 307.91876L130.25024 307.91876L130.25024 308.91876L126.79712 308.91876L126.531494 311.2469Q127.17212 310.8719 127.968994 310.8719Q129.12524 310.8719 129.81274 311.65314Q130.50024 312.41876 130.50024 313.73126Q130.50024 315.04376 129.7815 315.8094Q129.07837 316.575 127.79712 316.575Q126.67212 316.575 125.95337 315.95Q125.23462 315.3094 125.14087 314.2L126.156494 314.2Q126.26587 314.9344 126.687744 315.3094Q127.10962 315.6844 127.79712 315.6844Q128.54712 315.6844 128.98462 315.16876Q129.42212 314.65314 129.42212 313.7469Q129.42212 312.8875 128.95337 312.3719Q128.48462 311.85626 127.70337 311.85626Q127.000244 311.85626 126.593994 312.15314L126.312744 312.3875L125.437744 312.16876Z" fill-rule="nonzero"/><path fill="#757575" d="M206.24303 316.45L200.64928 316.45L200.64928 315.66876L203.6024 312.3875Q204.25865 311.6375 204.50865 311.1844Q204.75865 310.71564 204.75865 310.21564Q204.75865 309.54376 204.3524 309.1219Q203.96178 308.6844 203.27428 308.6844Q202.4774 308.6844 202.02428 309.15314Q201.57115 309.60626 201.57115 310.4344L200.49303 310.4344Q200.49303 309.2469 201.24303 308.52814Q202.00865 307.79376 203.27428 307.79376Q204.4774 307.79376 205.1649 308.41876Q205.8524 309.04376 205.8524 310.09064Q205.8524 311.34064 204.24303 313.09064L201.96178 315.5594L206.24303 315.5594L206.24303 316.45ZM213.00865 312.8094Q213.00865 314.71564 212.3524 315.65314Q211.71178 316.575 210.32115 316.575Q208.96178 316.575 208.30553 315.66876Q207.64928 314.7625 207.61803 312.95L207.61803 311.5125Q207.61803 309.6219 208.25865 308.71564Q208.9149 307.79376 210.30553 307.79376Q211.68053 307.79376 212.33678 308.6844Q212.99303 309.5594 213.00865 311.40314L213.00865 312.8094ZM211.9149 311.325Q211.9149 309.95 211.52428 309.325Q211.14928 308.6844 210.30553 308.6844Q209.4774 308.6844 209.08678 309.325Q208.71178 309.95 208.71178 311.2469L208.71178 312.98126Q208.71178 314.35626 209.1024 315.02814Q209.50865 315.6844 210.32115 315.6844Q211.11803 315.6844 211.50865 315.0594Q211.89928 314.4344 211.9149 313.10626L211.9149 311.325ZM220.00865 312.8094Q220.00865 314.71564 219.3524 315.65314Q218.71178 316.575 217.32115 316.575Q215.96178 316.575 215.30553 315.66876Q214.64928 314.7625 214.61803 312.95L214.61803 311.5125Q214.61803 309.6219 215.25865 308.71564Q215.9149 307.79376 217.30553 307.79376Q218.68053 307.79376 219.33678 308.6844Q219.99303 309.5594 220.00865 311.40314L220.00865 312.8094ZM218.9149 311.325Q218.9149 309.95 218.52428 309.325Q218.14928 308.6844 217.30553 308.6844Q216.4774 308.6844 216.08678 309.325Q215.71178 309.95 215.71178 311.2469L215.71178 312.98126Q215.71178 314.35626 216.1024 315.02814Q216.50865 315.6844 217.32115 315.6844Q218.11803 315.6844 218.50865 315.0594Q218.89928 314.4344 218.9149 313.10626L218.9149 311.325ZM227.00865 312.8094Q227.00865 314.71564 226.3524 315.65314Q225.71178 316.575 224.32115 316.575Q222.96178 316.575 222.30553 315.66876Q221.64928 314.7625 221.61803 312.95L221.61803 311.5125Q221.61803 309.6219 222.25865 308.71564Q222.9149 307.79376 224.30553 307.79376Q225.68053 307.79376 226.33678 308.6844Q226.99303 309.5594 227.00865 311.40314L227.00865 312.8094ZM225.9149 311.325Q225.9149 309.95 225.52428 309.325Q225.14928 308.6844 224.30553 308.6844Q223.4774 308.6844 223.08678 309.325Q222.71178 309.95 222.71178 311.2469L222.71178 312.98126Q222.71178 314.35626 223.1024 315.02814Q223.50865 315.6844 224.32115 315.6844Q225.11803 315.6844 225.50865 315.0594Q225.89928 314.4344 225.9149 313.10626L225.9149 311.325Z" fill-rule="nonzero"/><path fill="#757575" d="M302.95456 316.45L297.3608 316.45L297.3608 315.66876L300.31393 312.3875Q300.97018 311.6375 301.22018 311.1844Q301.47018 310.71564 301.47018 310.21564Q301.47018 309.54376 301.06393 309.1219Q300.6733 308.6844 299.9858 308.6844Q299.18893 308.6844 298.7358 309.15314Q298.28268 309.60626 298.28268 310.4344L297.20456 310.4344Q297.20456 309.2469 297.95456 308.52814Q298.72018 307.79376 299.9858 307.79376Q301.18893 307.79376 301.87643 308.41876Q302.56393 309.04376 302.56393 310.09064Q302.56393 311.34064 300.95456 313.09064L298.6733 315.5594L302.95456 315.5594L302.95456 316.45ZM309.72018 312.8094Q309.72018 314.71564 309.06393 315.65314Q308.4233 316.575 307.03268 316.575Q305.6733 316.575 305.01706 315.66876Q304.3608 314.7625 304.32956 312.95L304.32956 311.5125Q304.32956 309.6219 304.97018 308.71564Q305.62643 307.79376 307.01706 307.79376Q308.39206 307.79376 309.0483 308.6844Q309.70456 309.5594 309.72018 311.40314L309.72018 312.8094ZM308.62643 311.325Q308.62643 309.95 308.2358 309.325Q307.8608 308.6844 307.01706 308.6844Q306.18893 308.6844 305.7983 309.325Q305.4233 309.95 305.4233 311.2469L305.4233 312.98126Q305.4233 314.35626 305.81393 315.02814Q306.22018 315.6844 307.03268 315.6844Q307.82956 315.6844 308.22018 315.0594Q308.6108 314.4344 308.62643 313.10626L308.62643 311.325ZM316.72018 312.8094Q316.72018 314.71564 316.06393 315.65314Q315.4233 316.575 314.03268 316.575Q312.6733 316.575 312.01706 315.66876Q311.3608 314.7625 311.32956 312.95L311.32956 311.5125Q311.32956 309.6219 311.97018 308.71564Q312.62643 307.79376 314.01706 307.79376Q315.39206 307.79376 316.0483 308.6844Q316.70456 309.5594 316.72018 311.40314L316.72018 312.8094ZM315.62643 311.325Q315.62643 309.95 315.2358 309.325Q314.8608 308.6844 314.01706 308.6844Q313.18893 308.6844 312.7983 309.325Q312.4233 309.95 312.4233 311.2469L312.4233 312.98126Q312.4233 314.35626 312.81393 315.02814Q313.22018 315.6844 314.03268 315.6844Q314.82956 315.6844 315.22018 315.0594Q315.6108 314.4344 315.62643 313.10626L315.62643 311.325ZM318.8608 312.16876L319.2983 307.91876L323.6733 307.91876L323.6733 308.91876L320.22018 308.91876L319.95456 311.2469Q320.59518 310.8719 321.39206 310.8719Q322.5483 310.8719 323.2358 311.65314Q323.9233 312.41876 323.9233 313.73126Q323.9233 315.04376 323.20456 315.8094Q322.50143 316.575 321.22018 316.575Q320.09518 316.575 319.37643 315.95Q318.65768 315.3094 318.56393 314.2L319.57956 314.2Q319.68893 314.9344 320.1108 315.3094Q320.53268 315.6844 321.22018 315.6844Q321.97018 315.6844 322.40768 315.16876Q322.84518 314.65314 322.84518 313.7469Q322.84518 312.8875 322.37643 312.3719Q321.90768 311.85626 321.12643 311.85626Q320.4233 311.85626 320.01706 312.15314L319.7358 312.3875L318.8608 312.16876Z" fill-rule="nonzero"/><path fill="#757575" d="M399.6661 316.45L394.07236 316.45L394.07236 315.66876L397.02548 312.3875Q397.68173 311.6375 397.93173 311.1844Q398.18173 310.71564 398.18173 310.21564Q398.18173 309.54376 397.77548 309.1219Q397.38486 308.6844 396.69736 308.6844Q395.90048 308.6844 395.44736 309.15314Q394.99423 309.60626 394.99423 310.4344L393.9161 310.4344Q393.9161 309.2469 394.6661 308.52814Q395.43173 307.79376 396.69736 307.79376Q397.90048 307.79376 398.58798 308.41876Q399.27548 309.04376 399.27548 310.09064Q399.27548 311.34064 397.6661 313.09064L395.38486 315.5594L399.6661 315.5594L399.6661 316.45ZM406.43173 312.8094Q406.43173 314.71564 405.77548 315.65314Q405.13486 316.575 403.74423 316.575Q402.38486 316.575 401.7286 315.66876Q401.07236 314.7625 401.0411 312.95L401.0411 311.5125Q401.0411 309.6219 401.68173 308.71564Q402.33798 307.79376 403.7286 307.79376Q405.1036 307.79376 405.75986 308.6844Q406.4161 309.5594 406.43173 311.40314L406.43173 312.8094ZM405.33798 311.325Q405.33798 309.95 404.94736 309.325Q404.57236 308.6844 403.7286 308.6844Q402.90048 308.6844 402.50986 309.325Q402.13486 309.95 402.13486 311.2469L402.13486 312.98126Q402.13486 314.35626 402.52548 315.02814Q402.93173 315.6844 403.74423 315.6844Q404.5411 315.6844 404.93173 315.0594Q405.32236 314.4344 405.33798 313.10626L405.33798 311.325ZM411.63486 316.45L410.55673 316.45L410.55673 309.23126L408.36923 310.02814L408.36923 309.04376L411.4786 307.8719L411.63486 307.8719L411.63486 316.45ZM420.43173 312.8094Q420.43173 314.71564 419.77548 315.65314Q419.13486 316.575 417.74423 316.575Q416.38486 316.575 415.7286 315.66876Q415.07236 314.7625 415.0411 312.95L415.0411 311.5125Q415.0411 309.6219 415.68173 308.71564Q416.33798 307.79376 417.7286 307.79376Q419.1036 307.79376 419.75986 308.6844Q420.4161 309.5594 420.43173 311.40314L420.43173 312.8094ZM419.33798 311.325Q419.33798 309.95 418.94736 309.325Q418.57236 308.6844 417.7286 308.6844Q416.90048 308.6844 416.50986 309.325Q416.13486 309.95 416.13486 311.2469L416.13486 312.98126Q416.13486 314.35626 416.52548 315.02814Q416.93173 315.6844 417.74423 315.6844Q418.5411 315.6844 418.93173 315.0594Q419.32236 314.4344 419.33798 313.10626L419.33798 311.325Z" fill-rule="nonzero"/><path fill="#757575" d="M496.37766 316.45L490.7839 316.45L490.7839 315.66876L493.73703 312.3875Q494.39328 311.6375 494.64328 311.1844Q494.89328 310.71564 494.89328 310.21564Q494.89328 309.54376 494.48703 309.1219Q494.0964 308.6844 493.4089 308.6844Q492.61203 308.6844 492.1589 309.15314Q491.70578 309.60626 491.70578 310.4344L490.62766 310.4344Q490.62766 309.2469 491.37766 308.52814Q492.14328 307.79376 493.4089 307.79376Q494.61203 307.79376 495.29953 308.41876Q495.98703 309.04376 495.98703 310.09064Q495.98703 311.34064 494.37766 313.09064L492.0964 315.5594L496.37766 315.5594L496.37766 316.45ZM503.14328 312.8094Q503.14328 314.71564 502.48703 315.65314Q501.8464 316.575 500.45578 316.575Q499.0964 316.575 498.44016 315.66876Q497.7839 314.7625 497.75266 312.95L497.75266 311.5125Q497.75266 309.6219 498.39328 308.71564Q499.04953 307.79376 500.44016 307.79376Q501.81516 307.79376 502.4714 308.6844Q503.12766 309.5594 503.14328 311.40314L503.14328 312.8094ZM502.04953 311.325Q502.04953 309.95 501.6589 309.325Q501.2839 308.6844 500.44016 308.6844Q499.61203 308.6844 499.2214 309.325Q498.8464 309.95 498.8464 311.2469L498.8464 312.98126Q498.8464 314.35626 499.23703 315.02814Q499.64328 315.6844 500.45578 315.6844Q501.25266 315.6844 501.64328 315.0594Q502.0339 314.4344 502.04953 313.10626L502.04953 311.325ZM508.3464 316.45L507.26828 316.45L507.26828 309.23126L505.08078 310.02814L505.08078 309.04376L508.19016 307.8719L508.3464 307.8719L508.3464 316.45ZM512.28394 312.16876L512.72144 307.91876L517.09644 307.91876L517.09644 308.91876L513.6433 308.91876L513.3777 311.2469Q514.0183 310.8719 514.8152 310.8719Q515.97144 310.8719 516.65894 311.65314Q517.34644 312.41876 517.34644 313.73126Q517.34644 315.04376 516.6277 315.8094Q515.92456 316.575 514.6433 316.575Q513.5183 316.575 512.79956 315.95Q512.0808 315.3094 511.98703 314.2L513.0027 314.2Q513.11206 314.9344 513.53394 315.3094Q513.9558 315.6844 514.6433 315.6844Q515.3933 315.6844 515.8308 315.16876Q516.2683 314.65314 516.2683 313.7469Q516.2683 312.8875 515.79956 312.3719Q515.3308 311.85626 514.54956 311.85626Q513.84644 311.85626 513.4402 312.15314L513.15894 312.3875L512.28394 312.16876Z" fill-rule="nonzero"/><path stroke="#b7b7b7" stroke-width="4.0" stroke-linecap="butt" stroke-dasharray="4.0,5.0" d="M186.0 86.416664L199.0 86.416664" fill-rule="nonzero"/><path fill="#757575" d="M212.8125 86.979164L209.10938 86.979164L209.10938 89.99479L213.40625 89.99479L213.40625 90.916664L207.98438 90.916664L207.98438 82.385414L213.35938 82.385414L213.35938 83.30729L209.10938 83.30729L209.10938 86.05729L212.8125 86.05729L212.8125 86.979164ZM218.51562 89.229164Q218.51562 88.791664 218.17188 88.55729Q217.84375 88.30729 217.01562 88.135414Q216.20312 87.96354 215.71875 87.71354Q215.23438 87.46354 215.0 87.135414Q214.78125 86.791664 214.78125 86.322914Q214.78125 85.541664 215.4375 85.010414Q216.09375 84.46354 217.125 84.46354Q218.20312 84.46354 218.85938 85.02604Q219.53125 85.572914 219.53125 86.43229L218.45312 86.43229Q218.45312 85.99479 218.0625 85.68229Q217.6875 85.354164 217.125 85.354164Q216.53125 85.354164 216.1875 85.61979Q215.85938 85.86979 215.85938 86.27604Q215.85938 86.666664 216.17188 86.86979Q216.48438 87.072914 217.29688 87.260414Q218.10938 87.43229 218.60938 87.68229Q219.10938 87.93229 219.34375 88.291664Q219.59375 88.65104 219.59375 89.15104Q219.59375 90.010414 218.90625 90.52604Q218.23438 91.041664 217.15625 91.041664Q216.39062 91.041664 215.79688 90.77604Q215.21875 90.49479 214.89062 90.010414Q214.5625 89.52604 214.5625 88.96354L215.64062 88.96354Q215.67188 89.510414 216.07812 89.83854Q216.48438 90.15104 217.15625 90.15104Q217.76562 90.15104 218.14062 89.90104Q218.51562 89.65104 218.51562 89.229164ZM222.29688 83.041664L222.29688 84.572914L223.46875 84.572914L223.46875 85.416664L222.29688 85.416664L222.29688 89.33854Q222.29688 89.729164 222.45312 89.916664Q222.60938 90.104164 222.98438 90.104164Q223.17188 90.104164 223.5 90.041664L223.5 90.916664Q223.07812 91.041664 222.67188 91.041664Q221.95312 91.041664 221.57812 90.604164Q221.20312 90.15104 221.20312 89.33854L221.20312 85.416664L220.04688 85.416664L220.04688 84.572914L221.20312 84.572914L221.20312 83.041664L222.29688 83.041664ZM226.0 90.916664L224.92188 90.916664L224.92188 84.572914L226.0 84.572914L226.0 90.916664ZM224.82812 82.90104Q224.82812 82.635414 224.98438 82.447914Q225.15625 82.260414 225.46875 82.260414Q225.78125 82.260414 225.9375 82.447914Q226.10938 82.635414 226.10938 82.90104Q226.10938 83.15104 225.9375 83.33854Q225.78125 83.510414 225.46875 83.510414Q225.15625 83.510414 224.98438 83.33854Q224.82812 83.15104 224.82812 82.90104ZM228.84375 84.572914L228.875 85.27604Q229.5625 84.46354 230.75 84.46354Q232.07812 84.46354 232.5625 85.479164Q232.875 85.02604 233.375 84.74479Q233.89062 84.46354 234.57812 84.46354Q236.67188 84.46354 236.70312 86.666664L236.70312 90.916664L235.625 90.916664L235.625 86.729164Q235.625 86.05729 235.3125 85.729164Q235.0 85.385414 234.26562 85.385414Q233.65625 85.385414 233.25 85.74479Q232.85938 86.104164 232.79688 86.71354L232.79688 90.916664L231.71875 90.916664L231.71875 86.760414Q231.71875 85.385414 230.35938 85.385414Q229.29688 85.385414 228.90625 86.291664L228.90625 90.916664L227.8125 90.916664L227.8125 84.572914L228.84375 84.572914ZM241.45312 91.041664Q240.15625 91.041664 239.34375 90.197914Q238.54688 89.33854 238.54688 87.916664L238.54688 87.729164Q238.54688 86.77604 238.90625 86.041664Q239.26562 85.291664 239.90625 84.885414Q240.5625 84.46354 241.3125 84.46354Q242.54688 84.46354 243.23438 85.27604Q243.92188 86.08854 243.92188 87.604164L243.92188 88.05729L239.625 88.05729Q239.65625 88.99479 240.17188 89.572914Q240.70312 90.15104 241.51562 90.15104Q242.07812 90.15104 242.46875 89.916664Q242.875 89.68229 243.1875 89.291664L243.84375 89.80729Q243.04688 91.041664 241.45312 91.041664ZM241.3125 85.354164Q240.65625 85.354164 240.20312 85.83854Q239.76562 86.30729 239.67188 87.166664L242.84375 87.166664L242.84375 87.08854Q242.79688 86.260414 242.39062 85.80729Q242.0 85.354164 241.3125 85.354164ZM247.89062 85.541664Q247.64062 85.510414 247.35938 85.510414Q246.28125 85.510414 245.90625 86.416664L245.90625 90.916664L244.82812 90.916664L244.82812 84.572914L245.875 84.572914L245.89062 85.30729Q246.42188 84.46354 247.40625 84.46354Q247.71875 84.46354 247.89062 84.541664L247.89062 85.541664ZM250.29688 83.041664L250.29688 84.572914L251.46875 84.572914L251.46875 85.416664L250.29688 85.416664L250.29688 89.33854Q250.29688 89.729164 250.45312 89.916664Q250.60938 90.104164 250.98438 90.104164Q251.17188 90.104164 251.5 90.041664L251.5 90.916664Q251.07812 91.041664 250.67188 91.041664Q249.95312 91.041664 249.57812 90.604164Q249.20312 90.15104 249.20312 89.33854L249.20312 85.416664L248.04688 85.416664L248.04688 84.572914L249.20312 84.572914L249.20312 83.041664L250.29688 83.041664Z" fill-rule="nonzero"/><path stroke="#000000" stroke-width="4.0" stroke-linecap="butt" d="M268.0 86.416664L280.0 86.416664" fill-rule="nonzero"/><path fill="#757575" d="M293.70312 88.68229L290.125 88.68229L289.32812 90.916664L288.17188 90.916664L291.42188 82.385414L292.40625 82.385414L295.67188 90.916664L294.51562 90.916664L293.70312 88.68229ZM290.46875 87.760414L293.375 87.760414L291.92188 83.77604L290.46875 87.760414ZM298.90625 89.447914L300.48438 84.572914L301.59375 84.572914L299.3125 90.916664L298.48438 90.916664L296.1875 84.572914L297.29688 84.572914L298.90625 89.447914ZM304.0 90.916664L302.92188 90.916664L302.92188 81.916664L304.0 81.916664L304.0 90.916664ZM308.45312 91.041664Q307.15625 91.041664 306.34375 90.197914Q305.54688 89.33854 305.54688 87.916664L305.54688 87.729164Q305.54688 86.77604 305.90625 86.041664Q306.26562 85.291664 306.90625 84.885414Q307.5625 84.46354 308.3125 84.46354Q309.54688 84.46354 310.23438 85.27604Q310.92188 86.08854 310.92188 87.604164L310.92188 88.05729L306.625 88.05729Q306.65625 88.99479 307.17188 89.572914Q307.70312 90.15104 308.51562 90.15104Q309.07812 90.15104 309.46875 89.916664Q309.875 89.68229 310.1875 89.291664L310.84375 89.80729Q310.04688 91.041664 308.45312 91.041664ZM308.3125 85.354164Q307.65625 85.354164 307.20312 85.83854Q306.76562 86.30729 306.67188 87.166664L309.84375 87.166664L309.84375 87.08854Q309.79688 86.260414 309.39062 85.80729Q309.0 85.354164 308.3125 85.354164ZM315.51562 89.229164Q315.51562 88.791664 315.17188 88.55729Q314.84375 88.30729 314.01562 88.135414Q313.20312 87.96354 312.71875 87.71354Q312.23438 87.46354 312.0 87.135414Q311.78125 86.791664 311.78125 86.322914Q311.78125 85.541664 312.4375 85.010414Q313.09375 84.46354 314.125 84.46354Q315.20312 84.46354 315.85938 85.02604Q316.53125 85.572914 316.53125 86.43229L315.45312 86.43229Q315.45312 85.99479 315.0625 85.68229Q314.6875 85.354164 314.125 85.354164Q313.53125 85.354164 313.1875 85.61979Q312.85938 85.86979 312.85938 86.27604Q312.85938 86.666664 313.17188 86.86979Q313.48438 87.072914 314.29688 87.260414Q315.10938 87.43229 315.60938 87.68229Q316.10938 87.93229 316.34375 88.291664Q316.59375 88.65104 316.59375 89.15104Q316.59375 90.010414 315.90625 90.52604Q315.23438 91.041664 314.15625 91.041664Q313.39062 91.041664 312.79688 90.77604Q312.21875 90.49479 311.89062 90.010414Q311.5625 89.52604 311.5625 88.96354L312.64062 88.96354Q312.67188 89.510414 313.07812 89.83854Q313.48438 90.15104 314.15625 90.15104Q314.76562 90.15104 315.14062 89.90104Q315.51562 89.65104 315.51562 89.229164ZM319.29688 83.041664L319.29688 84.572914L320.46875 84.572914L320.46875 85.416664L319.29688 85.416664L319.29688 89.33854Q319.29688 89.729164 319.45312 89.916664Q319.60938 90.104164 319.98438 90.104164Q320.17188 90.104164 320.5 90.041664L320.5 90.916664Q320.07812 91.041664 319.67188 91.041664Q318.95312 91.041664 318.57812 90.604164Q318.20312 90.15104 318.20312 89.33854L318.20312 85.416664L317.04688 85.416664L317.04688 84.572914L318.20312 84.572914L318.20312 83.041664L319.29688 83.041664ZM325.35938 90.916664L325.35938 85.416664L324.35938 85.416664L324.35938 84.572914L325.35938 84.572914L325.35938 83.93229Q325.35938 82.90104 325.89062 82.354164Q326.4375 81.791664 327.4375 81.791664Q327.8125 81.791664 328.1875 81.885414L328.125 82.77604Q327.84375 82.71354 327.54688 82.71354Q327.01562 82.71354 326.71875 83.02604Q326.4375 83.33854 326.4375 83.90104L326.4375 84.572914L327.79688 84.572914L327.79688 85.416664L326.4375 85.416664L326.4375 90.916664L325.35938 90.916664ZM331.89062 85.541664Q331.64062 85.510414 331.35938 85.510414Q330.28125 85.510414 329.90625 86.416664L329.90625 90.916664L328.82812 90.916664L328.82812 84.572914L329.875 84.572914L329.89062 85.30729Q330.42188 84.46354 331.40625 84.46354Q331.71875 84.46354 331.89062 84.541664L331.89062 85.541664ZM336.73438 90.916664Q336.64062 90.729164 336.57812 90.24479Q335.82812 91.041664 334.78125 91.041664Q333.84375 91.041664 333.23438 90.510414Q332.64062 89.979164 332.64062 89.15104Q332.64062 88.166664 333.39062 87.61979Q334.14062 87.072914 335.51562 87.072914L336.5625 87.072914L336.5625 86.572914Q336.5625 86.010414 336.21875 85.68229Q335.89062 85.33854 335.21875 85.33854Q334.64062 85.33854 334.25 85.635414Q333.85938 85.916664 333.85938 86.33854L332.76562 86.33854Q332.76562 85.854164 333.09375 85.416664Q333.4375 84.979164 334.01562 84.729164Q334.59375 84.46354 335.28125 84.46354Q336.39062 84.46354 337.0 85.010414Q337.625 85.55729 337.65625 86.510414L337.65625 89.43229Q337.65625 90.30729 337.875 90.822914L337.875 90.916664L336.73438 90.916664ZM334.9375 90.08854Q335.45312 90.08854 335.90625 89.822914Q336.35938 89.55729 336.5625 89.135414L336.5625 87.83854L335.71875 87.83854Q333.71875 87.83854 333.71875 89.010414Q333.71875 89.510414 334.0625 89.80729Q334.40625 90.08854 334.9375 90.08854ZM343.84375 84.572914L343.875 85.27604Q344.5625 84.46354 345.75 84.46354Q347.07812 84.46354 347.5625 85.479164Q347.875 85.02604 348.375 84.74479Q348.89062 84.46354 349.57812 84.46354Q351.67188 84.46354 351.70312 86.666664L351.70312 90.916664L350.625 90.916664L350.625 86.729164Q350.625 86.05729 350.3125 85.729164Q350.0 85.385414 349.26562 85.385414Q348.65625 85.385414 348.25 85.74479Q347.85938 86.104164 347.79688 86.71354L347.79688 90.916664L346.71875 90.916664L346.71875 86.760414Q346.71875 85.385414 345.35938 85.385414Q344.29688 85.385414 343.90625 86.291664L343.90625 90.916664L342.8125 90.916664L342.8125 84.572914L343.84375 84.572914ZM356.45312 91.041664Q355.15625 91.041664 354.34375 90.197914Q353.54688 89.33854 353.54688 87.916664L353.54688 87.729164Q353.54688 86.77604 353.90625 86.041664Q354.26562 85.291664 354.90625 84.885414Q355.5625 84.46354 356.3125 84.46354Q357.54688 84.46354 358.23438 85.27604Q358.92188 86.08854 358.92188 87.604164L358.92188 88.05729L354.625 88.05729Q354.65625 88.99479 355.17188 89.572914Q355.70312 90.15104 356.51562 90.15104Q357.07812 90.15104 357.46875 89.916664Q357.875 89.68229 358.1875 89.291664L358.84375 89.80729Q358.04688 91.041664 356.45312 91.041664ZM356.3125 85.354164Q355.65625 85.354164 355.20312 85.83854Q354.76562 86.30729 354.67188 87.166664L357.84375 87.166664L357.84375 87.08854Q357.79688 86.260414 357.39062 85.80729Q357.0 85.354164 356.3125 85.354164ZM359.5625 87.697914Q359.5625 86.229164 360.25 85.354164Q360.9375 84.46354 362.0625 84.46354Q363.17188 84.46354 363.82812 85.21354L363.82812 81.916664L364.90625 81.916664L364.90625 90.916664L363.90625 90.916664L363.85938 90.229164Q363.20312 91.041664 362.04688 91.041664Q360.95312 91.041664 360.25 90.135414Q359.5625 89.229164 359.5625 87.77604L359.5625 87.697914ZM360.64062 87.822914Q360.64062 88.90104 361.07812 89.510414Q361.53125 90.11979 362.3125 90.11979Q363.34375 90.11979 363.82812 89.18229L363.82812 86.27604Q363.34375 85.385414 362.32812 85.385414Q361.53125 85.385414 361.07812 85.99479Q360.64062 86.604164 360.64062 87.822914ZM368.0 90.916664L366.92188 90.916664L366.92188 81.916664L368.0 81.916664L368.0 90.916664ZM372.45312 91.041664Q371.15625 91.041664 370.34375 90.197914Q369.54688 89.33854 369.54688 87.916664L369.54688 87.729164Q369.54688 86.77604 369.90625 86.041664Q370.26562 85.291664 370.90625 84.885414Q371.5625 84.46354 372.3125 84.46354Q373.54688 84.46354 374.23438 85.27604Q374.92188 86.08854 374.92188 87.604164L374.92188 88.05729L370.625 88.05729Q370.65625 88.99479 371.17188 89.572914Q371.70312 90.15104 372.51562 90.15104Q373.07812 90.15104 373.46875 89.916664Q373.875 89.68229 374.1875 89.291664L374.84375 89.80729Q374.04688 91.041664 372.45312 91.041664ZM372.3125 85.354164Q371.65625 85.354164 371.20312 85.83854Q370.76562 86.30729 370.67188 87.166664L373.84375 87.166664L373.84375 87.08854Q373.79688 86.260414 373.39062 85.80729Q373.0 85.354164 372.3125 85.354164ZM376.84375 84.572914L376.875 85.27604Q377.5625 84.46354 378.75 84.46354Q380.07812 84.46354 380.5625 85.479164Q380.875 85.02604 381.375 84.74479Q381.89062 84.46354 382.57812 84.46354Q384.67188 84.46354 384.70312 86.666664L384.70312 90.916664L383.625 90.916664L383.625 86.729164Q383.625 86.05729 383.3125 85.729164Q383.0 85.385414 382.26562 85.385414Q381.65625 85.385414 381.25 85.74479Q380.85938 86.104164 380.79688 86.71354L380.79688 90.916664L379.71875 90.916664L379.71875 86.760414Q379.71875 85.385414 378.35938 85.385414Q377.29688 85.385414 376.90625 86.291664L376.90625 90.916664L375.8125 90.916664L375.8125 84.572914L376.84375 84.572914ZM390.51562 89.229164Q390.51562 88.791664 390.17188 88.55729Q389.84375 88.30729 389.01562 88.135414Q388.20312 87.96354 387.71875 87.71354Q387.23438 87.46354 387.0 87.135414Q386.78125 86.791664 386.78125 86.322914Q386.78125 85.541664 387.4375 85.010414Q388.09375 84.46354 389.125 84.46354Q390.20312 84.46354 390.85938 85.02604Q391.53125 85.572914 391.53125 86.43229L390.45312 86.43229Q390.45312 85.99479 390.0625 85.68229Q389.6875 85.354164 389.125 85.354164Q388.53125 85.354164 388.1875 85.61979Q387.85938 85.86979 387.85938 86.27604Q387.85938 86.666664 388.17188 86.86979Q388.48438 87.072914 389.29688 87.260414Q390.10938 87.43229 390.60938 87.68229Q391.10938 87.93229 391.34375 88.291664Q391.59375 88.65104 391.59375 89.15104Q391.59375 90.010414 390.90625 90.52604Q390.23438 91.041664 389.15625 91.041664Q388.39062 91.041664 387.79688 90.77604Q387.21875 90.49479 386.89062 90.010414Q386.5625 89.52604 386.5625 88.96354L387.64062 88.96354Q387.67188 89.510414 388.07812 89.83854Q388.48438 90.15104 389.15625 90.15104Q389.76562 90.15104 390.14062 89.90104Q390.51562 89.65104 390.51562 89.229164ZM394.0 90.916664L392.92188 90.916664L392.92188 81.916664L394.0 81.916664L394.0 90.916664ZM397.0 90.916664L395.92188 90.916664L395.92188 84.572914L397.0 84.572914L397.0 90.916664ZM395.82812 82.90104Q395.82812 82.635414 395.98438 82.447914Q396.15625 82.260414 396.46875 82.260414Q396.78125 82.260414 396.9375 82.447914Q397.10938 82.635414 397.10938 82.90104Q397.10938 83.15104 396.9375 83.33854Q396.78125 83.510414 396.46875 83.510414Q396.15625 83.510414 395.98438 83.33854Q395.82812 83.15104 395.82812 82.90104ZM402.51562 89.229164Q402.51562 88.791664 402.17188 88.55729Q401.84375 88.30729 401.01562 88.135414Q400.20312 87.96354 399.71875 87.71354Q399.23438 87.46354 399.0 87.135414Q398.78125 86.791664 398.78125 86.322914Q398.78125 85.541664 399.4375 85.010414Q400.09375 84.46354 401.125 84.46354Q402.20312 84.46354 402.85938 85.02604Q403.53125 85.572914 403.53125 86.43229L402.45312 86.43229Q402.45312 85.99479 402.0625 85.68229Q401.6875 85.354164 401.125 85.354164Q400.53125 85.354164 400.1875 85.61979Q399.85938 85.86979 399.85938 86.27604Q399.85938 86.666664 400.17188 86.86979Q400.48438 87.072914 401.29688 87.260414Q402.10938 87.43229 402.60938 87.68229Q403.10938 87.93229 403.34375 88.291664Q403.59375 88.65104 403.59375 89.15104Q403.59375 90.010414 402.90625 90.52604Q402.23438 91.041664 401.15625 91.041664Q400.39062 91.041664 399.79688 90.77604Q399.21875 90.49479 398.89062 90.010414Q398.5625 89.52604 398.5625 88.96354L399.64062 88.96354Q399.67188 89.510414 400.07812 89.83854Q400.48438 90.15104 401.15625 90.15104Q401.76562 90.15104 402.14062 89.90104Q402.51562 89.65104 402.51562 89.229164ZM406.29688 83.041664L406.29688 84.572914L407.46875 84.572914L407.46875 85.416664L406.29688 85.416664L406.29688 89.33854Q406.29688 89.729164 406.45312 89.916664Q406.60938 90.104164 406.98438 90.104164Q407.17188 90.104164 407.5 90.041664L407.5 90.916664Q407.07812 91.041664 406.67188 91.041664Q405.95312 91.041664 405.57812 90.604164Q405.20312 90.15104 405.20312 89.33854L405.20312 85.416664L404.04688 85.416664L404.04688 84.572914L405.20312 84.572914L405.20312 83.041664L406.29688 83.041664ZM411.45312 91.041664Q410.15625 91.041664 409.34375 90.197914Q408.54688 89.33854 408.54688 87.916664L408.54688 87.729164Q408.54688 86.77604 408.90625 86.041664Q409.26562 85.291664 409.90625 84.885414Q410.5625 84.46354 411.3125 84.46354Q412.54688 84.46354 413.23438 85.27604Q413.92188 86.08854 413.92188 87.604164L413.92188 88.05729L409.625 88.05729Q409.65625 88.99479 410.17188 89.572914Q410.70312 90.15104 411.51562 90.15104Q412.07812 90.15104 412.46875 89.916664Q412.875 89.68229 413.1875 89.291664L413.84375 89.80729Q413.04688 91.041664 411.45312 91.041664ZM411.3125 85.354164Q410.65625 85.354164 410.20312 85.83854Q409.76562 86.30729 409.67188 87.166664L412.84375 87.166664L412.84375 87.08854Q412.79688 86.260414 412.39062 85.80729Q412.0 85.354164 411.3125 85.354164Z" fill-rule="nonzero"/><path fill="#757575" d="M225.07812 23.33125L229.71875 34.925L234.375 23.33125L236.79688 23.33125L236.79688 37.55L234.92188 37.55L234.92188 32.01875L235.10938 26.034374L230.4375 37.55L229.0 37.55L224.34375 26.065624L224.53125 32.01875L224.53125 37.55L222.65625 37.55L222.65625 23.33125L225.07812 23.33125ZM243.75 37.753124Q241.60938 37.753124 240.25 36.346874Q238.90625 34.925 238.90625 32.565624L238.90625 32.221874Q238.90625 30.659374 239.5 29.425Q240.10938 28.190624 241.1875 27.4875Q242.26562 26.784374 243.53125 26.784374Q245.59375 26.784374 246.73438 28.14375Q247.875 29.503124 247.875 32.034374L247.875 32.784374L240.71875 32.784374Q240.75 34.346874 241.625 35.315624Q242.5 36.26875 243.84375 36.26875Q244.8125 36.26875 245.46875 35.878124Q246.14062 35.4875 246.64062 34.846874L247.73438 35.70625Q246.40625 37.753124 243.75 37.753124ZM243.53125 28.26875Q242.4375 28.26875 241.6875 29.065624Q240.95312 29.8625 240.78125 31.3L246.0625 31.3L246.0625 31.159374Q245.98438 29.784374 245.3125 29.034374Q244.65625 28.26875 243.53125 28.26875ZM249.92188 32.175Q249.92188 29.753124 251.07812 28.26875Q252.23438 26.784374 254.09375 26.784374Q255.95312 26.784374 257.03125 28.05L257.03125 22.55L258.84375 22.55L258.84375 37.55L257.1875 37.55L257.09375 36.409374Q256.01562 37.753124 254.07812 37.753124Q252.25 37.753124 251.07812 36.253124Q249.92188 34.7375 249.92188 32.315624L249.92188 32.175ZM251.73438 32.378124Q251.73438 34.175 252.46875 35.190624Q253.21875 36.20625 254.53125 36.20625Q256.25 36.20625 257.03125 34.675L257.03125 29.815624Q256.23438 28.315624 254.54688 28.315624Q253.21875 28.315624 252.46875 29.346874Q251.73438 30.378124 251.73438 32.378124ZM263.32812 37.55L261.53125 37.55L261.53125 22.55L263.32812 22.55L263.32812 37.55ZM270.75 37.753124Q268.60938 37.753124 267.25 36.346874Q265.90625 34.925 265.90625 32.565624L265.90625 32.221874Q265.90625 30.659374 266.5 29.425Q267.10938 28.190624 268.1875 27.4875Q269.26562 26.784374 270.53125 26.784374Q272.59375 26.784374 273.73438 28.14375Q274.875 29.503124 274.875 32.034374L274.875 32.784374L267.71875 32.784374Q267.75 34.346874 268.625 35.315624Q269.5 36.26875 270.84375 36.26875Q271.8125 36.26875 272.46875 35.878124Q273.14062 35.4875 273.64062 34.846874L274.73438 35.70625Q273.40625 37.753124 270.75 37.753124ZM270.53125 28.26875Q269.4375 28.26875 268.6875 29.065624Q267.95312 29.8625 267.78125 31.3L273.0625 31.3L273.0625 31.159374Q272.98438 29.784374 272.3125 29.034374Q271.65625 28.26875 270.53125 28.26875ZM279.0625 26.9875L279.10938 28.159374Q280.28125 26.784374 282.25 26.784374Q284.46875 26.784374 285.26562 28.4875Q285.79688 27.721874 286.64062 27.253124Q287.48438 26.784374 288.64062 26.784374Q292.10938 26.784374 292.17188 30.471874L292.17188 37.55L290.35938 37.55L290.35938 30.58125Q290.35938 29.440624 289.84375 28.878124Q289.32812 28.315624 288.10938 28.315624Q287.10938 28.315624 286.4375 28.925Q285.78125 29.51875 285.67188 30.534374L285.67188 37.55L283.85938 37.55L283.85938 30.628124Q283.85938 28.315624 281.59375 28.315624Q279.8125 28.315624 279.17188 29.83125L279.17188 37.55L277.35938 37.55L277.35938 26.9875L279.0625 26.9875ZM301.51562 34.753124Q301.51562 34.01875 300.96875 33.6125Q300.42188 33.20625 299.04688 32.909374Q297.67188 32.6125 296.85938 32.20625Q296.0625 31.8 295.67188 31.2375Q295.29688 30.659374 295.29688 29.878124Q295.29688 28.58125 296.39062 27.690624Q297.48438 26.784374 299.20312 26.784374Q301.0 26.784374 302.10938 27.721874Q303.23438 28.64375 303.23438 30.08125L301.40625 30.08125Q301.40625 29.346874 300.78125 28.815624Q300.15625 28.26875 299.20312 28.26875Q298.20312 28.26875 297.64062 28.70625Q297.09375 29.128124 297.09375 29.83125Q297.09375 30.471874 297.60938 30.815624Q298.125 31.14375 299.48438 31.45625Q300.84375 31.753124 301.67188 32.175Q302.51562 32.58125 302.92188 33.175Q303.32812 33.76875 303.32812 34.6125Q303.32812 36.034374 302.1875 36.89375Q301.0625 37.753124 299.25 37.753124Q297.98438 37.753124 297.0 37.3Q296.03125 36.846874 295.46875 36.05Q294.92188 35.2375 294.92188 34.3L296.73438 34.3Q296.78125 35.20625 297.45312 35.7375Q298.14062 36.26875 299.25 36.26875Q300.28125 36.26875 300.89062 35.8625Q301.51562 35.440624 301.51562 34.753124ZM311.89062 36.503124Q310.84375 37.753124 308.79688 37.753124Q307.10938 37.753124 306.21875 36.76875Q305.34375 35.784374 305.32812 33.8625L305.32812 26.9875L307.14062 26.9875L307.14062 33.815624Q307.14062 36.20625 309.09375 36.20625Q311.15625 36.20625 311.84375 34.675L311.84375 26.9875L313.65625 26.9875L313.65625 37.55L311.9375 37.55L311.89062 36.503124ZM318.8125 24.425L318.8125 26.9875L320.79688 26.9875L320.79688 28.378124L318.8125 28.378124L318.8125 34.925Q318.8125 35.565624 319.07812 35.89375Q319.34375 36.20625 319.98438 36.20625Q320.29688 36.20625 320.84375 36.08125L320.84375 37.55Q320.125 37.753124 319.45312 37.753124Q318.25 37.753124 317.625 37.01875Q317.01562 36.284374 317.01562 34.925L317.01562 28.378124L315.09375 28.378124L315.09375 26.9875L317.01562 26.9875L317.01562 24.425L318.8125 24.425ZM326.85938 35.096874L329.46875 26.9875L331.3125 26.9875L327.53125 37.55L326.15625 37.55L322.32812 26.9875L324.17188 26.9875L326.85938 35.096874ZM335.32812 37.55L333.53125 37.55L333.53125 26.9875L335.32812 26.9875L335.32812 37.55ZM333.375 24.175Q333.375 23.7375 333.64062 23.440624Q333.92188 23.128124 334.4375 23.128124Q334.96875 23.128124 335.23438 23.440624Q335.51562 23.7375 335.51562 24.175Q335.51562 24.6125 335.23438 24.909374Q334.96875 25.20625 334.4375 25.20625Q333.92188 25.20625 333.64062 24.909374Q333.375 24.6125 333.375 24.175ZM341.3125 32.659374L340.1875 33.83125L340.1875 37.55L338.375 37.55L338.375 22.55L340.1875 22.55L340.1875 31.628124L341.15625 30.45625L344.4375 26.9875L346.64062 26.9875L342.53125 31.39375L347.125 37.55L345.0 37.55L341.3125 32.659374ZM350.32812 37.55L348.53125 37.55L348.53125 22.55L350.32812 22.55L350.32812 37.55ZM355.32812 37.55L353.53125 37.55L353.53125 26.9875L355.32812 26.9875L355.32812 37.55ZM353.375 24.175Q353.375 23.7375 353.64062 23.440624Q353.92188 23.128124 354.4375 23.128124Q354.96875 23.128124 355.23438 23.440624Q355.51562 23.7375 355.51562 24.175Q355.51562 24.6125 355.23438 24.909374Q354.96875 25.20625 354.4375 25.20625Q353.92188 25.20625 353.64062 24.909374Q353.375 24.6125 353.375 24.175ZM360.07812 26.9875L360.14062 28.315624Q361.34375 26.784374 363.29688 26.784374Q366.65625 26.784374 366.67188 30.565624L366.67188 37.55L364.875 37.55L364.875 30.55Q364.85938 29.409374 364.34375 28.8625Q363.84375 28.315624 362.75 28.315624Q361.875 28.315624 361.20312 28.784374Q360.54688 29.253124 360.17188 30.01875L360.17188 37.55L358.375 37.55L358.375 26.9875L360.07812 26.9875ZM368.9375 32.175Q368.9375 29.70625 370.07812 28.253124Q371.21875 26.784374 373.10938 26.784374Q375.04688 26.784374 376.125 28.159374L376.21875 26.9875L377.85938 26.9875L377.85938 37.3Q377.85938 39.346874 376.64062 40.51875Q375.4375 41.70625 373.375 41.70625Q372.23438 41.70625 371.14062 41.221874Q370.04688 40.7375 369.46875 39.878124L370.40625 38.8Q371.57812 40.2375 373.25 40.2375Q374.57812 40.2375 375.3125 39.4875Q376.04688 38.753124 376.04688 37.409374L376.04688 36.4875Q374.96875 37.753124 373.09375 37.753124Q371.23438 37.753124 370.07812 36.253124Q368.9375 34.753124 368.9375 32.175ZM370.75 32.378124Q370.75 34.175 371.48438 35.190624Q372.21875 36.20625 373.53125 36.20625Q375.25 36.20625 376.04688 34.659374L376.04688 29.83125Q375.21875 28.315624 373.5625 28.315624Q372.23438 28.315624 371.48438 29.346874Q370.75 30.378124 370.75 32.378124Z" fill-rule="nonzero"/></svg>